<svg width="151" height="44" viewBox="0 0 151 44" fill="none" xmlns="http://www.w3.org/2000/svg">
<path d="M46.8431 15.07C45.5204 14.08 44.308 13.53 41.8832 13.53C36.8131 13.53 32.2942 18.26 32.2942 23.87C32.2942 29.7 35.9314 34.21 41.4423 34.21C43.9774 34.21 45.4102 33.66 47.0635 32.23V33.88H53.6766V0.109985H46.8431V15.07ZM46.8431 27.06C45.7409 28.49 44.6387 28.93 43.2058 28.93C40.5606 28.93 39.1277 27.06 39.1277 23.76C39.1277 20.24 41.0015 18.81 43.3161 18.81C44.7489 18.81 46.1818 19.8 46.8431 20.79V27.06ZM21.162 23.43L16.4226 13.86H15.2102L10.4708 23.43L7.60511 13.86H0L8.37664 34.32H9.58905L15.7613 23.54L21.9336 34.32H23.146L31.5226 13.86H23.9175L21.162 23.43ZM66.2416 13.53C64.2577 13.53 61.6124 13.97 59.7387 14.52L60.2898 19.25C62.0533 18.81 63.7066 18.59 65.0292 18.59C67.7847 18.59 69.5482 19.69 69.5482 22.55V23.1C68.2255 22.33 66.9029 21.89 64.6985 21.89C60.0693 21.89 57.3139 24.64 57.3139 28.05C57.3139 32.01 60.2898 34.32 64.1474 34.32C66.6825 34.32 68.2255 33.55 69.5482 32.23V33.88H76.1613V22.66C76.2715 16.72 73.0752 13.53 66.2416 13.53ZM69.5482 28.93C68.8869 29.81 68.0051 30.36 66.462 30.36C64.8088 30.36 63.8168 29.48 63.8168 27.94C63.8168 26.51 65.1394 25.63 66.6825 25.63C68.0051 25.63 68.6664 25.96 69.5482 26.73V28.93ZM119.918 17.16V13.97H113.195V33.99H120.028V21.34C121.131 19.8 123.776 19.69 126.972 20.46V13.64C123.555 13.53 121.792 14.74 119.918 17.16ZM104.267 26.95C102.283 26.95 100.63 28.6 100.63 30.58C100.63 32.56 102.283 34.21 104.267 34.21C106.251 34.21 107.904 32.56 107.904 30.58C107.904 28.6 106.251 26.95 104.267 26.95ZM88.9467 25.08L84.8686 13.86H77.2635L85.7504 31.79L79.4679 43.89H86.3015L100.52 13.97H93.0248L88.9467 25.08ZM143.615 26.4C142.072 28.05 140.639 28.6 139.207 28.6C137.884 28.6 136.892 28.05 136.892 26.07V13.86H130.058V27.61C130.058 31.46 132.263 34.21 136.451 34.21C138.986 34.21 141.521 32.78 143.836 30.47V33.88H150.559V13.86H143.726C143.615 13.86 143.615 26.4 143.615 26.4Z" fill="white"/>
</svg>
