<svg width="31" height="31" viewBox="0 0 31 31" fill="white" xmlns="http://www.w3.org/2000/svg">
<path d="M15.5143 12.8462C16.9944 12.8408 18.1732 11.6519 18.1678 10.1687C18.1624 8.68477 16.981 7.50408 15.5003 7.50281C14.0073 7.50122 12.8148 8.7038 12.8263 10.201C12.8374 11.6789 14.0295 12.8516 15.5143 12.8462Z" fill="white"/>
<path d="M15.5 0C6.93956 0 0 6.93988 0 15.5C0 24.0601 6.93956 31 15.5 31C24.0604 31 31 24.0601 31 15.5C31 6.93988 24.0604 0 15.5 0ZM15.5222 4.71359C18.5413 4.72183 20.9646 7.19137 20.949 10.2438C20.9338 13.2258 18.4709 15.6427 15.4569 15.6326C12.4736 15.6224 10.0269 13.1491 10.0446 10.161C10.0614 7.14031 12.5094 4.70534 15.5222 4.71359ZM21.6372 17.7777C20.9696 18.463 20.166 18.959 19.2736 19.305C18.43 19.632 17.5056 19.7966 16.5903 19.9063C16.7289 20.0566 16.7939 20.1305 16.8802 20.2168C18.1221 21.4653 19.37 22.7075 20.6078 23.9596C21.0296 24.3865 21.1174 24.9154 20.8853 25.4111C20.6319 25.9534 20.0633 26.3099 19.5054 26.2715C19.1521 26.2471 18.8765 26.0717 18.632 25.8253C17.6946 24.8821 16.7394 23.9558 15.8216 22.9949C15.5536 22.7152 15.4255 22.7684 15.1892 23.0114C14.2464 23.9824 13.288 24.938 12.3242 25.8884C11.8913 26.3153 11.3763 26.3927 10.8739 26.1485C10.3402 25.8903 10.0009 25.3452 10.0269 24.7968C10.0453 24.427 10.2273 24.1435 10.4816 23.8905C11.7112 22.6635 12.9369 21.4327 14.163 20.2028C14.2445 20.1213 14.3199 20.0347 14.4382 19.9079C12.766 19.7331 11.258 19.3215 9.96694 18.312C9.80647 18.1865 9.64124 18.0653 9.49536 17.9245C8.9299 17.3819 8.87314 16.76 9.31998 16.12C9.70276 15.572 10.3446 15.4255 11.0122 15.7404C11.1416 15.801 11.2647 15.8777 11.3826 15.9589C13.7884 17.6121 17.0936 17.6575 19.5089 16.0328C19.748 15.8501 20.004 15.6998 20.3005 15.624C20.8764 15.4756 21.4143 15.6877 21.7232 16.192C22.0768 16.7682 22.0726 17.3302 21.6372 17.7777Z" fill="white"/>
</svg>
