<svg width="31" height="31" viewBox="0 0 31 31" fill="white" xmlns="http://www.w3.org/2000/svg">
<path d="M15.5 0C6.93956 0 0 6.93956 0 15.5C0 24.0604 6.93956 31 15.5 31C24.0604 31 31 24.0604 31 15.5C31 6.93956 24.0604 0 15.5 0ZM24.8729 11.3665C24.8802 11.5494 24.884 11.7327 24.884 11.917C24.884 18.5382 19.8457 25.3867 11.4143 25.3867C8.83698 25.3867 6.32749 24.6513 4.15733 23.2594C4.11198 23.2305 4.09327 23.1744 4.11135 23.1239C4.12942 23.0738 4.18048 23.0428 4.23281 23.0488C4.59688 23.0922 4.9692 23.1138 5.33866 23.1138C7.34391 23.1138 9.24228 22.4938 10.8479 21.3175C8.92324 21.1552 7.26906 19.8527 6.67412 17.9946C6.66175 17.9559 6.67063 17.9137 6.69727 17.8833C6.72423 17.8528 6.76545 17.8395 6.80478 17.8468C7.3382 17.948 7.8805 17.9546 8.40314 17.8696C6.41819 17.2528 5.02311 15.3934 5.02311 13.2766L5.02374 13.215C5.0247 13.1748 5.04658 13.138 5.08146 13.118C5.11603 13.0977 5.15916 13.0974 5.19405 13.117C5.71161 13.4044 6.28436 13.5889 6.87201 13.6597C5.73127 12.7504 5.06148 11.3722 5.06148 9.8978C5.06148 9.04724 5.28665 8.21127 5.71288 7.48028C5.73191 7.44761 5.76552 7.42668 5.80295 7.42383C5.84069 7.42002 5.87716 7.43651 5.90094 7.46569C8.23569 10.3294 11.67 12.0927 15.3424 12.3194C15.2812 12.0112 15.2501 11.6934 15.2501 11.3728C15.2501 8.72123 17.4073 6.56439 20.0585 6.56439C21.3619 6.56439 22.6216 7.10003 23.5245 8.03621C24.5422 7.82881 25.5117 7.45459 26.4072 6.9237C26.4482 6.89928 26.4995 6.90309 26.5373 6.93258C26.5741 6.96239 26.5893 7.01187 26.5747 7.05753C26.2712 8.00672 25.6794 8.83476 24.8844 9.43256C25.6331 9.30222 26.3597 9.08213 27.0507 8.77546C27.097 8.75421 27.1519 8.76753 27.1852 8.80654C27.2182 8.84586 27.221 8.90199 27.1925 8.94449C26.563 9.8867 25.7828 10.7014 24.8729 11.3665Z" />
</svg>
