<svg xmlns="http://www.w3.org/2000/svg" xmlns:xlink="http://www.w3.org/1999/xlink"><symbol id="arrow" viewBox="0 0 7 152"><path d="M3.5 0v150m0 0l2.5-5.3M3.5 150L1 144.7" stroke="#fff" stroke-width="1.38"/></symbol><symbol id="circle-big" viewBox="0 0 224 447"><path d="M223.93 446.997a222.86 222.86 0 01-85.318-16.978 222.936 222.936 0 01-72.33-48.35 223.04 223.04 0 01-48.328-72.36 223.125 223.125 0 010-170.709 223.046 223.046 0 0148.329-72.36 222.94 222.94 0 0172.329-48.35A222.862 222.862 0 01223.93.912v446.085z" fill-opacity=".3"/></symbol><symbol id="circle-small" viewBox="0 0 93 185"><path d="M.86.837A91.944 91.944 0 0165.9 27.788a92.053 92.053 0 010 130.132A91.965 91.965 0 01.86 184.873V.837z" fill-opacity=".3"/></symbol><symbol id="logo" viewBox="0 0 151 44"><path d="M46.843 15.07c-1.323-.99-2.535-1.54-4.96-1.54-5.07 0-9.589 4.73-9.589 10.34 0 5.83 3.637 10.34 9.148 10.34 2.535 0 3.968-.55 5.621-1.98v1.65h6.614V.11h-6.834v14.96zm0 11.99c-1.102 1.43-2.204 1.87-3.637 1.87-2.645 0-4.078-1.87-4.078-5.17 0-3.52 1.873-4.95 4.188-4.95 1.433 0 2.866.99 3.527 1.98v6.27zm-25.681-3.63l-4.74-9.57H15.21l-4.74 9.57-2.865-9.57H0l8.377 20.46h1.212l6.172-10.78 6.173 10.78h1.212l8.377-20.46h-7.605l-2.756 9.57zm45.08-9.9c-1.984 0-4.63.44-6.503.99l.55 4.73c1.764-.44 3.418-.66 4.74-.66 2.756 0 4.52 1.1 4.52 3.96v.55c-1.324-.77-2.646-1.21-4.85-1.21-4.63 0-7.385 2.75-7.385 6.16 0 3.96 2.976 6.27 6.833 6.27 2.535 0 4.078-.77 5.401-2.09v1.65h6.613V22.66c.11-5.94-3.086-9.13-9.92-9.13zm3.306 15.4c-.661.88-1.543 1.43-3.086 1.43-1.653 0-2.645-.88-2.645-2.42 0-1.43 1.322-2.31 2.866-2.31 1.322 0 1.983.33 2.865 1.1v2.2zm50.37-11.77v-3.19h-6.723v20.02h6.833V21.34c1.103-1.54 3.748-1.65 6.944-.88v-6.82c-3.417-.11-5.18 1.1-7.054 3.52zm-15.651 9.79c-1.984 0-3.637 1.65-3.637 3.63s1.653 3.63 3.637 3.63 3.637-1.65 3.637-3.63-1.653-3.63-3.637-3.63zm-15.32-1.87l-4.078-11.22h-7.606l8.487 17.93-6.282 12.1h6.834l14.218-29.92h-7.495l-4.078 11.11zm54.668 1.32c-1.543 1.65-2.976 2.2-4.408 2.2-1.323 0-2.315-.55-2.315-2.53V13.86h-6.834v13.75c0 3.85 2.205 6.6 6.393 6.6 2.535 0 5.07-1.43 7.385-3.74v3.41h6.723V13.86h-6.833c-.111 0-.111 12.54-.111 12.54z" fill="#fff"/></symbol><symbol id="fb" viewBox="0 0 31 31"><path d="M15.5 0C6.94 0 0 6.94 0 15.5 0 24.06 6.94 31 15.5 31 24.06 31 31 24.06 31 15.5 31 6.94 24.06 0 15.5 0zm5.913 7.894H19.27c-1.682 0-2.007.8-2.007 1.971v2.585h4.01l-.003 4.048h-4.006v10.39h-4.182v-10.39H9.587V12.45h3.495V9.465c0-3.465 2.117-5.352 5.207-5.352l3.125.005v3.776z"/></symbol><symbol id="ok" viewBox="0 0 31 31"><path d="M15.514 12.846a2.653 2.653 0 002.654-2.677A2.659 2.659 0 0015.5 7.503a2.663 2.663 0 00-2.674 2.698 2.66 2.66 0 002.688 2.645z"/><path d="M15.5 0C6.94 0 0 6.94 0 15.5 0 24.06 6.94 31 15.5 31 24.06 31 31 24.06 31 15.5 31 6.94 24.06 0 15.5 0zm.022 4.714c3.02.008 5.443 2.477 5.427 5.53-.015 2.982-2.478 5.399-5.492 5.389-2.983-.01-5.43-2.484-5.412-5.472a5.468 5.468 0 015.477-5.447zm6.115 13.064c-.667.685-1.471 1.181-2.363 1.527-.844.327-1.768.492-2.684.601.139.15.204.225.29.31 1.242 1.25 2.49 2.491 3.728 3.744.422.427.51.955.277 1.451-.253.542-.822.899-1.38.86-.353-.024-.628-.2-.873-.446-.937-.943-1.893-1.87-2.81-2.83-.268-.28-.396-.227-.633.016-.943.971-1.901 1.927-2.865 2.877-.433.427-.948.505-1.45.26-.534-.258-.873-.803-.847-1.351.018-.37.2-.654.455-.907 1.23-1.227 2.455-2.457 3.681-3.687.082-.082.157-.168.275-.295-1.672-.175-3.18-.587-4.471-1.596-.16-.126-.326-.247-.472-.388-.565-.542-.622-1.164-.175-1.804.383-.548 1.025-.695 1.692-.38.13.061.253.138.37.219 2.406 1.653 5.712 1.698 8.127.074.239-.183.495-.333.791-.409.576-.148 1.114.064 1.423.568.354.576.35 1.138-.086 1.586z"/></symbol><symbol id="tw" viewBox="0 0 31 31"><path d="M15.5 0C6.94 0 0 6.94 0 15.5 0 24.06 6.94 31 15.5 31 24.06 31 31 24.06 31 15.5 31 6.94 24.06 0 15.5 0zm9.373 11.367c.007.182.011.366.011.55 0 6.621-5.038 13.47-13.47 13.47-2.577 0-5.087-.736-7.257-2.128a.114.114 0 01-.046-.135.116.116 0 01.122-.075c.364.043.736.065 1.106.065a9.24 9.24 0 005.509-1.797 4.807 4.807 0 01-4.174-3.322.115.115 0 01.023-.112.115.115 0 01.108-.036 4.613 4.613 0 001.598.023 4.824 4.824 0 01-3.38-4.593v-.062a.115.115 0 01.171-.098c.518.287 1.09.472 1.678.543a4.803 4.803 0 01-1.81-3.762c0-.85.225-1.687.65-2.418a.114.114 0 01.091-.056.112.112 0 01.098.042 13.26 13.26 0 009.441 4.853 4.814 4.814 0 014.716-5.755c1.304 0 2.564.536 3.466 1.472a9.268 9.268 0 002.883-1.112.115.115 0 01.13.009c.037.03.052.079.038.125a4.802 4.802 0 01-1.69 2.375 9.244 9.244 0 002.166-.658.115.115 0 01.142.17 9.585 9.585 0 01-2.32 2.421z"/></symbol><symbol id="vk" viewBox="0 0 31 31"><path d="M15.5 0C6.94 0 0 6.94 0 15.5 0 24.06 6.94 31 15.5 31 24.06 31 31 24.06 31 15.5 31 6.94 24.06 0 15.5 0zm7.862 17.176c.723.706 1.487 1.37 2.136 2.149.287.344.558.7.764 1.1.294.572.029 1.198-.483 1.232h-3.175c-.82.067-1.473-.263-2.023-.824-.44-.447-.847-.924-1.27-1.386a2.967 2.967 0 00-.572-.509c-.433-.281-.809-.195-1.057.257-.252.46-.31.97-.334 1.482-.035.749-.26.945-1.012.98-1.605.075-3.129-.169-4.544-.978-1.25-.714-2.216-1.721-3.058-2.862-1.64-2.224-2.896-4.664-4.025-7.175-.254-.566-.068-.868.555-.88a88.34 88.34 0 013.11 0c.421.006.7.247.863.645.56 1.378 1.246 2.69 2.107 3.905.229.324.463.647.796.875.368.253.649.17.822-.241.111-.261.159-.54.183-.82.082-.958.092-1.916-.05-2.87-.09-.597-.425-.983-1.02-1.096-.304-.057-.26-.17-.112-.343.256-.3.496-.484.975-.484l3.588-.001c.565.111.692.365.769.934l.003 3.987c-.006.22.11.874.507 1.018.317.105.526-.15.716-.35.86-.913 1.473-1.99 2.022-3.106.242-.492.451-1.001.654-1.51.151-.378.386-.564.812-.557l3.454.004c.102 0 .206 0 .306.018.583.1.742.35.562.918-.283.893-.834 1.636-1.373 2.381-.577.798-1.192 1.568-1.764 2.37-.525.732-.484 1.101.168 1.737z"/></symbol></svg>